<?xml version="1.0" encoding="UTF-8" standalone="no"?>
<svg
   xmlns:dc="http://purl.org/dc/elements/1.1/"
   xmlns:cc="http://creativecommons.org/ns#"
   xmlns:rdf="http://www.w3.org/1999/02/22-rdf-syntax-ns#"
   xmlns:svg="http://www.w3.org/2000/svg"
   xmlns="http://www.w3.org/2000/svg"
   xmlns:sodipodi="http://sodipodi.sourceforge.net/DTD/sodipodi-0.dtd"
   xmlns:inkscape="http://www.inkscape.org/namespaces/inkscape"
   width="32"
   height="32"
   version="1.1"
   viewBox="0 0 32 32"
   id="svg17"
   sodipodi:docname="applications.svg"
   inkscape:version="0.92.2 2405546, 2018-03-11">
  <metadata
     id="metadata23">
    <rdf:RDF>
      <cc:Work
         rdf:about="">
        <dc:format>image/svg+xml</dc:format>
        <dc:type
           rdf:resource="http://purl.org/dc/dcmitype/StillImage" />
      </cc:Work>
    </rdf:RDF>
  </metadata>
  <defs
     id="defs21" />
  <sodipodi:namedview
     pagecolor="#ffffff"
     bordercolor="#666666"
     borderopacity="1"
     objecttolerance="10"
     gridtolerance="10"
     guidetolerance="10"
     inkscape:pageopacity="0"
     inkscape:pageshadow="2"
     inkscape:window-width="1366"
     inkscape:window-height="721"
     id="namedview19"
     showgrid="false"
     inkscape:zoom="20.85965"
     inkscape:cx="15.452667"
     inkscape:cy="3.9752416"
     inkscape:window-x="0"
     inkscape:window-y="24"
     inkscape:window-maximized="1"
     inkscape:current-layer="g14" />
  <g
     id="applications-other">
    <rect
       width="32"
       height="32"
       x="0"
       y="0"
       style="opacity:0.001;fill-rule:evenodd"
       id="rect2" />
    <g
       id="g14">
      <circle
         style="opacity:0.2"
         cx="16"
         cy="17"
         r="14"
         id="circle4" />
      <circle
         cx="16"
         cy="16"
         r="14"
         style="fill:#16a085;fill-opacity:1"
         id="circle6" />
      <path
         d="m 11,8 a 4,4 0 0 0 -4,4 4,4 0 0 0 4,4 4,4 0 0 0 4,-4 4,4 0 0 0 -4,-4 z m 10,0 a 4,4 0 0 0 -4,4 4,4 0 0 0 4,4 4,4 0 0 0 4,-4 4,4 0 0 0 -4,-4 z M 11,18 a 4,4 0 0 0 -4,4 4,4 0 0 0 4,4 4,4 0 0 0 4,-4 4,4 0 0 0 -4,-4 z m 10,0 a 4,4 0 0 0 -4,4 4,4 0 0 0 4,4 4,4 0 0 0 4,-4 4,4 0 0 0 -4,-4 z"
         style="opacity:0.2;fill-rule:evenodd"
         id="path8" />
      <path
         style="fill:#ffffff;fill-rule:evenodd"
         d="M 11 7 A 4 4 0 0 0 7 11 A 4 4 0 0 0 11 15 A 4 4 0 0 0 15 11 A 4 4 0 0 0 11 7 z M 21 7 A 4 4 0 0 0 17 11 A 4 4 0 0 0 21 15 A 4 4 0 0 0 25 11 A 4 4 0 0 0 21 7 z M 11 17 A 4 4 0 0 0 7 21 A 4 4 0 0 0 11 25 A 4 4 0 0 0 15 21 A 4 4 0 0 0 11 17 z M 21 17 A 4 4 0 0 0 17 21 A 4 4 0 0 0 21 25 A 4 4 0 0 0 25 21 A 4 4 0 0 0 21 17 z"
         id="path10" />
      <path
         style="fill:#ffffff;opacity:0.1"
         d="M 16 2 A 14 14 0 0 0 2 16 A 14 14 0 0 0 2.0214844 16.585938 A 14 14 0 0 1 16 3 A 14 14 0 0 1 29.978516 16.414062 A 14 14 0 0 0 30 16 A 14 14 0 0 0 16 2 z"
         id="path12" />
    </g>
  </g>
</svg>
